<svg width="42" height="11" viewBox="0 0 42 11" fill="none" xmlns="http://www.w3.org/2000/svg">
<path d="M0.162109 7.74414C0.255859 9.24414 1.51562 10.2051 3.39062 10.2051C5.39453 10.2051 6.64844 9.19727 6.64844 7.59766C6.64844 6.33203 5.93359 5.63477 4.19922 5.21875L3.26758 4.99023C2.16602 4.7207 1.7207 4.36914 1.7207 3.75391C1.7207 2.96289 2.41211 2.45312 3.44922 2.45312C4.43359 2.45312 5.11328 2.94531 5.23633 3.74805H6.51367C6.4375 2.33594 5.18359 1.33984 3.4668 1.33984C1.62109 1.33984 0.390625 2.33594 0.390625 3.82422C0.390625 5.05469 1.08789 5.78125 2.61719 6.15039L3.70703 6.41406C4.82617 6.68359 5.31836 7.09375 5.31836 7.75586C5.31836 8.5293 4.54492 9.08594 3.49023 9.08594C2.35938 9.08594 1.57422 8.56445 1.46289 7.74414H0.162109ZM12.2941 8.29492C12.0597 8.81055 11.5382 9.0918 10.7765 9.0918C9.76867 9.0918 9.11828 8.36523 9.07727 7.21094V7.15234H13.5831V6.71875C13.5831 4.72656 12.5109 3.51367 10.7355 3.51367C8.93664 3.51367 7.79406 4.80859 7.79406 6.83008C7.79406 8.86328 8.9132 10.123 10.7413 10.123C12.2003 10.123 13.2316 9.41992 13.507 8.29492H12.2941ZM10.7296 4.53906C11.6613 4.53906 12.2706 5.21289 12.2999 6.24414H9.07727C9.14758 5.21875 9.79797 4.53906 10.7296 4.53906ZM14.9748 10H16.2346V6.19727C16.2346 5.30078 16.9084 4.68555 17.8635 4.68555C18.0862 4.68555 18.4612 4.72656 18.5666 4.75586V3.57227C18.4319 3.54297 18.1916 3.52539 18.0041 3.52539C17.1721 3.52539 16.4631 3.97656 16.2815 4.60352H16.1877V3.63672H14.9748V10ZM25.097 3.63672H23.7611L22.1791 8.71094H22.0795L20.4916 3.63672H19.1439L21.4466 10H22.8002L25.097 3.63672ZM26.9048 2.5C27.3442 2.5 27.7016 2.14258 27.7016 1.70898C27.7016 1.26953 27.3442 0.912109 26.9048 0.912109C26.4653 0.912109 26.1079 1.26953 26.1079 1.70898C26.1079 2.14258 26.4653 2.5 26.9048 2.5ZM26.2778 10H27.5317V3.63672H26.2778V10ZM34.6656 5.68164C34.5016 4.44531 33.5348 3.51367 31.9352 3.51367C30.0777 3.51367 28.9469 4.77344 28.9469 6.79492C28.9469 8.85742 30.0836 10.123 31.941 10.123C33.5172 10.123 34.5016 9.23828 34.6656 7.98438H33.441C33.277 8.67578 32.732 9.05078 31.9352 9.05078C30.8863 9.05078 30.2359 8.20117 30.2359 6.79492C30.2359 5.41797 30.8805 4.58594 31.9352 4.58594C32.7789 4.58594 33.2945 5.06055 33.441 5.68164H34.6656ZM40.1706 8.29492C39.9362 8.81055 39.4148 9.0918 38.653 9.0918C37.6452 9.0918 36.9948 8.36523 36.9538 7.21094V7.15234H41.4597V6.71875C41.4597 4.72656 40.3874 3.51367 38.612 3.51367C36.8132 3.51367 35.6706 4.80859 35.6706 6.83008C35.6706 8.86328 36.7898 10.123 38.6179 10.123C40.0769 10.123 41.1081 9.41992 41.3835 8.29492H40.1706ZM38.6062 4.53906C39.5378 4.53906 40.1472 5.21289 40.1765 6.24414H36.9538C37.0241 5.21875 37.6745 4.53906 38.6062 4.53906Z" fill="white"/>
</svg>
