<svg width="32" height="10" viewBox="0 0 32 10" fill="none" xmlns="http://www.w3.org/2000/svg">
<path d="M2.25977 9H3.77148V0.544922H2.26562L0.0566406 2.0918V3.54492L2.16016 2.06836H2.25977V9Z" fill="white"/>
<path d="M9.12695 9.20508C11.2773 9.20508 12.5547 7.52344 12.5547 4.67578C12.5547 3.60352 12.3496 2.70117 11.957 2.00391C11.3887 0.919922 10.4102 0.333984 9.17383 0.333984C7.33398 0.333984 6.0332 1.57031 6.0332 3.30469C6.0332 4.93359 7.20508 6.11719 8.81641 6.11719C9.80664 6.11719 10.6094 5.6543 11.0078 4.85156H11.0254C11.0254 4.85156 11.0488 4.85156 11.0547 4.85156C11.0664 4.85156 11.1074 4.85156 11.1074 4.85156C11.1074 6.78516 10.375 7.93945 9.13867 7.93945C8.41211 7.93945 7.84961 7.54102 7.65625 6.90234H6.15039C6.40234 8.29102 7.58008 9.20508 9.12695 9.20508ZM9.17969 4.91602C8.20703 4.91602 7.51562 4.22461 7.51562 3.25781C7.51562 2.31445 8.24219 1.59375 9.18555 1.59375C10.1289 1.59375 10.8555 2.32617 10.8555 3.28125C10.8555 4.22461 10.1465 4.91602 9.17969 4.91602Z" fill="white"/>
<path d="M15.209 8.10352C15.7656 8.10352 16.1465 7.70508 16.1465 7.17773C16.1465 6.64453 15.7656 6.25195 15.209 6.25195C14.6582 6.25195 14.2715 6.64453 14.2715 7.17773C14.2715 7.70508 14.6582 8.10352 15.209 8.10352ZM15.209 3.70898C15.7656 3.70898 16.1465 3.31641 16.1465 2.78906C16.1465 2.25586 15.7656 1.86328 15.209 1.86328C14.6582 1.86328 14.2715 2.25586 14.2715 2.78906C14.2715 3.31641 14.6582 3.70898 15.209 3.70898Z" fill="white"/>
<path d="M21.1152 9.21094C23.1367 9.21094 24.3379 7.57031 24.3379 4.77539C24.3379 1.96875 23.1191 0.333984 21.1152 0.333984C19.1055 0.333984 17.8867 1.96875 17.8867 4.76367C17.8867 7.57031 19.0879 9.21094 21.1152 9.21094ZM21.1152 7.95703C20.043 7.95703 19.416 6.84375 19.416 4.76367C19.416 2.70117 20.0547 1.59375 21.1152 1.59375C22.1758 1.59375 22.8086 2.69531 22.8086 4.76367C22.8086 6.84375 22.1875 7.95703 21.1152 7.95703Z" fill="white"/>
<path d="M25.9082 3.01758V3.04102H27.3262V3.01758C27.3262 2.15625 27.9238 1.57617 28.8086 1.57617C29.6406 1.57617 30.25 2.11523 30.25 2.85938C30.25 3.45703 29.9629 3.89648 28.8086 5.06836L25.9902 7.95117V9H31.8613V7.7168H28.0645V7.61719L29.834 5.8418C31.2695 4.42383 31.7324 3.67383 31.7324 2.76562C31.7324 1.35352 30.5254 0.333984 28.8555 0.333984C27.1211 0.333984 25.9082 1.43555 25.9082 3.01758Z" fill="white"/>
</svg>
